<?xml version="1.0" encoding="UTF-8"?>
<svg version="1.1" xmlns="http://www.w3.org/2000/svg" width="8000" height="8000">
<path d="M0 0 C2640 0 5280 0 8000 0 C8000 2640 8000 5280 8000 8000 C5360 8000 2720 8000 0 8000 C0 5360 0 2720 0 0 Z " fill="#2E2E2E" transform="translate(0,0)"/>
<path d="M0 0 C1.57019754 -0.00296692 3.14039303 -0.00724766 4.71058389 -0.01270432 C9.01047478 -0.02387295 13.31016022 -0.01651175 17.61004533 -0.00601959 C22.31711008 0.00210945 27.0241467 -0.0073078 31.73120861 -0.01441878 C40.01967816 -0.02453374 48.30808851 -0.02349397 56.59655923 -0.01520955 C69.04075519 -0.00283451 81.48490336 -0.00787489 93.92910051 -0.01623865 C115.23410826 -0.03004904 136.53909468 -0.02956983 157.84410439 -0.0214605 C179.55766156 -0.01325527 201.27120463 -0.01163628 222.98476259 -0.01794164 C224.36058812 -0.01833701 225.73641364 -0.01873238 227.15393084 -0.01913974 C234.17851165 -0.02118723 241.20309243 -0.02333857 248.22767319 -0.02552449 C299.56725449 -0.04126993 350.90682792 -0.04214265 402.24641074 -0.03554526 C454.2967032 -0.02889998 506.34698965 -0.02875835 558.39728202 -0.0365924 C560.03770145 -0.03683616 561.67812089 -0.03707993 563.36825 -0.03733108 C578.40124372 -0.03956542 593.43423743 -0.0418649 608.46723113 -0.04424292 C646.16733273 -0.05019731 683.86743442 -0.05508843 721.56753625 -0.05925563 C723.29527005 -0.05944699 725.02300386 -0.05963834 726.80309323 -0.05983549 C812.01556823 -0.06916966 897.22804251 -0.06698705 982.4405178 -0.06354705 C984.28794699 -0.06347259 986.13537617 -0.06339814 988.03878806 -0.06332143 C995.51807972 -0.0630196 1002.99737137 -0.0627169 1010.47666302 -0.0624135 C1031.13623117 -0.06157667 1051.79579931 -0.06077075 1072.45536746 -0.06000391 C1074.32056206 -0.05993403 1076.18575666 -0.05986416 1078.1074723 -0.05979216 C1164.4918226 -0.056588 1250.87617227 -0.05972846 1337.26052247 -0.0641917 C1346.6807022 -0.06467554 1356.10088193 -0.06514555 1365.52106165 -0.06561583 C1380.64065463 -0.06637177 1395.76024761 -0.06713001 1410.87984059 -0.06789275 C1413.69213296 -0.06803458 1413.69213296 -0.06803458 1416.56123933 -0.06817927 C1426.04204525 -0.06865798 1435.52285118 -0.06913942 1445.00365711 -0.06962538 C1533.48697847 -0.07416001 1621.97029984 -0.0776583 1710.45362128 -0.08012858 C1712.38161186 -0.08018269 1714.30960244 -0.0802368 1716.29601697 -0.08029255 C1841.1837443 -0.08377567 1966.07147109 -0.08241809 2090.95919837 -0.07773868 C2094.9883941 -0.07758879 2099.01758982 -0.07743898 2103.04678555 -0.07728926 C2147.52947578 -0.07563265 2192.012166 -0.07388099 2236.49485622 -0.07209625 C2239.50675406 -0.0719755 2239.50675406 -0.0719755 2242.57949832 -0.07185231 C2248.66668347 -0.07160825 2254.75386863 -0.07136406 2260.84105378 -0.0711198 C2262.85061769 -0.07103917 2264.8601816 -0.07095854 2266.93064139 -0.07087546 C2277.08452594 -0.07046778 2287.23841049 -0.07005868 2297.39229504 -0.06964711 C2499.39025603 -0.06146763 2701.38821399 -0.059597 3062.12064409 -0.09008842 C3128.89548281 -0.09622758 3195.67032153 -0.10230993 3262.44516028 -0.10805789 C3265.43532402 -0.10831591 3265.43532402 -0.10831591 3268.48589509 -0.10857915 C3393.30370979 -0.11933686 3518.12152389 -0.12522477 3642.93933906 -0.12561503 C3644.86672136 -0.12562155 3646.79410366 -0.12562807 3648.77989148 -0.12563478 C3735.31890943 -0.12591626 3821.85792732 -0.12492528 3908.39694524 -0.12274472 C3938.6636393 -0.12198521 3968.93033337 -0.12131124 3999.19702744 -0.12066456 C4006.72694649 -0.12050333 4014.25686553 -0.12033522 4021.78678458 -0.12016155 C4108.17367813 -0.11818618 4194.56057028 -0.1190056 4280.94746341 -0.12846628 C4282.81132224 -0.1286699 4284.67518106 -0.12887351 4286.59552046 -0.1290833 C4316.5793001 -0.13237099 4346.56307971 -0.13586513 4376.54685932 -0.13936454 C4461.6390081 -0.14928068 4546.73115475 -0.15694251 4631.82330407 -0.15019802 C4633.54895649 -0.15006193 4635.2746089 -0.14992584 4637.05255382 -0.14978563 C4674.69564547 -0.14677235 4712.33873691 -0.14261767 4749.98182831 -0.1373413 C4764.9936344 -0.13525312 4780.00544051 -0.13330831 4795.01724662 -0.1314067 C4796.65480424 -0.13119521 4798.29236186 -0.13098373 4799.97954244 -0.13076584 C4851.96424033 -0.12411942 4903.94892716 -0.12975683 4955.93362365 -0.14245806 C5007.10082007 -0.15490649 5058.26800015 -0.15524564 5109.43519565 -0.13783439 C5116.43700559 -0.13545335 5123.43881558 -0.13321163 5130.44062559 -0.13105325 C5132.49680718 -0.13041126 5132.49680718 -0.13041126 5134.59452779 -0.1297563 C5156.24023499 -0.12336218 5177.88591616 -0.13033392 5199.53161974 -0.14297656 C5220.69069709 -0.15506254 5241.84973321 -0.15303464 5263.00880738 -0.13570907 C5275.36162046 -0.12601966 5287.71431533 -0.12722526 5300.06712058 -0.1446714 C5308.24832592 -0.1551391 5316.42944124 -0.15113542 5324.61063779 -0.13531714 C5329.24097468 -0.12676811 5333.87107707 -0.12433389 5338.50140131 -0.13981383 C5379.60587106 -0.26807119 5379.60587106 -0.26807119 5399.15756644 8.00090417 C5399.97942435 8.34153893 5400.80128226 8.6821737 5401.64804496 9.03313073 C5415.82293181 15.1235491 5427.06880928 23.58258025 5437.97006644 34.37590417 C5438.64424613 34.98949792 5439.31842582 35.60309167 5440.01303519 36.23527917 C5456.95327484 51.89627875 5468.23568244 77.63414274 5469.97006644 100.37590417 C5470.12087704 105.27886131 5470.124556 110.18106456 5470.12744369 115.08590707 C5470.1319291 116.58178228 5470.13684143 118.07765627 5470.14214006 119.57352882 C5470.15545204 123.68541135 5470.16265415 127.79728526 5470.16884277 131.90918384 C5470.17664419 136.38469631 5470.19009536 140.86019245 5470.20279433 145.33569321 C5470.2270586 154.21100145 5470.24597084 163.0863138 5470.26316806 171.96163824 C5470.2775797 179.32622695 5470.29419576 186.69080793 5470.31226625 194.05538854 C5470.31487079 195.1169949 5470.31747534 196.17860126 5470.32015881 197.27237752 C5470.32548066 199.43758032 5470.330807 201.60278311 5470.33613777 203.76798589 C5470.39304502 227.00679004 5470.44141168 250.24560843 5470.48771905 273.48443576 C5470.49013239 274.69514283 5470.49254573 275.9058499 5470.49503221 277.15324506 C5470.49745234 278.36776007 5470.49987247 279.58227508 5470.50236594 280.83359357 C5470.52713752 293.21096632 5470.55360725 305.58833529 5470.58016051 317.96570432 C5470.83383509 436.34912618 5471.02696788 554.73259177 5471.10063995 930.81532433 C5471.09720357 957.07056272 5471.09439023 983.32580091 5471.09344901 1009.58103951 C5471.09342508 1010.24804762 5471.09340116 1010.91505573 5471.0933765 1011.60227621 C5471.09313554 1018.39752763 5471.09291588 1025.19277906 5471.09270647 1031.98803049 C5471.09040882 1106.50312428 5471.0846204 1181.01821768 5469.97006644 3767.37590417 C5384.59757543 3767.41002762 5299.22508429 3767.44382385 3958.30693661 3767.92992811 C3940.28931281 3767.93596696 3922.27168902 3767.94202082 3904.25406523 3767.94808414 C3785.77082491 3767.98795228 3667.28758445 3768.02737203 3011.82162894 3768.21965417 C3010.03081742 3768.2201233 3010.03081742 3768.2201233 3008.20382788 3768.2206019 C2889.18485727 3768.25177231 2770.1658862 3768.28106379 1397.11850394 3768.21965417 C1396.27530661 3768.21934169 1395.43210928 3768.21902922 1394.56336052 3768.21870727 C1312.77671375 3768.18838764 1230.99006798 3768.15559479 806.60555043 3767.94687493 C795.35982133 3767.94080142 784.11409222 3767.93475051 772.8683631 3767.92871657 C699.53937993 3767.88936758 626.21039709 3767.84945518 -116.02993356 3767.37590417 C-116.0848629 3660.78413954 -116.13942236 3554.19237473 -117.15263685 1029.93504278 C-117.15284653 1023.15037502 -117.15307274 1016.36570727 -117.15331613 1009.58103951 C-117.15334 1008.91510026 -117.15336387 1008.24916101 -117.15338847 1007.56304178 C-117.15436969 980.70214381 -117.15747548 953.84124628 -117.16101309 926.98034854 C-117.17574439 814.88912787 -117.1794967 702.79790411 -116.69575408 318.18861013 C-116.6601716 299.74337927 -116.62939208 281.2981451 -116.60122643 262.85290154 C-116.56961775 242.19737743 -116.53075075 221.54188119 -116.48207225 200.88638994 C-116.45740312 190.35386822 -116.43572757 179.82136266 -116.42276679 169.2888194 C-116.41198593 160.5351778 -116.39462534 151.78158201 -116.36832659 143.02797266 C-116.35528003 138.62184567 -116.34530563 134.21577226 -116.34403777 129.80962479 C-116.34281202 125.79834327 -116.33239408 121.78719177 -116.31482577 117.7759495 C-116.31010152 116.33857738 -116.30863511 114.90118963 -116.31094489 113.46381161 C-116.32710172 101.53334066 -115.36500442 89.96441364 -111.46743356 78.62590417 C-111.082165 77.49728967 -111.082165 77.49728967 -110.68911324 76.34587487 C-100.4738741 47.7043754 -79.34181349 24.390256 -52.06411324 11.07316979 C-35.3288861 3.24995518 -18.3894599 -0.09638445 0 0 Z " fill="#0A0A0A" transform="translate(1323.0299335569143,2012.6240958310664)"/>
<path d="M0 0 C1.57019754 -0.00296692 3.14039303 -0.00724766 4.71058389 -0.01270432 C9.01047478 -0.02387295 13.31016022 -0.01651175 17.61004533 -0.00601959 C22.31711008 0.00210945 27.0241467 -0.0073078 31.73120861 -0.01441878 C40.01967816 -0.02453374 48.30808851 -0.02349397 56.59655923 -0.01520955 C69.04075519 -0.00283451 81.48490336 -0.00787489 93.92910051 -0.01623865 C115.23410826 -0.03004904 136.53909468 -0.02956983 157.84410439 -0.0214605 C179.55766156 -0.01325527 201.27120463 -0.01163628 222.98476259 -0.01794164 C224.36058812 -0.01833701 225.73641364 -0.01873238 227.15393084 -0.01913974 C234.17851165 -0.02118723 241.20309243 -0.02333857 248.22767319 -0.02552449 C299.56725449 -0.04126993 350.90682792 -0.04214265 402.24641074 -0.03554526 C454.2967032 -0.02889998 506.34698965 -0.02875835 558.39728202 -0.0365924 C560.03770145 -0.03683616 561.67812089 -0.03707993 563.36825 -0.03733108 C578.40124372 -0.03956542 593.43423743 -0.0418649 608.46723113 -0.04424292 C646.16733273 -0.05019731 683.86743442 -0.05508843 721.56753625 -0.05925563 C723.29527005 -0.05944699 725.02300386 -0.05963834 726.80309323 -0.05983549 C812.01556823 -0.06916966 897.22804251 -0.06698705 982.4405178 -0.06354705 C984.28794699 -0.06347259 986.13537617 -0.06339814 988.03878806 -0.06332143 C995.51807972 -0.0630196 1002.99737137 -0.0627169 1010.47666302 -0.0624135 C1031.13623117 -0.06157667 1051.79579931 -0.06077075 1072.45536746 -0.06000391 C1074.32056206 -0.05993403 1076.18575666 -0.05986416 1078.1074723 -0.05979216 C1164.4918226 -0.056588 1250.87617227 -0.05972846 1337.26052247 -0.0641917 C1346.6807022 -0.06467554 1356.10088193 -0.06514555 1365.52106165 -0.06561583 C1380.64065463 -0.06637177 1395.76024761 -0.06713001 1410.87984059 -0.06789275 C1413.69213296 -0.06803458 1413.69213296 -0.06803458 1416.56123933 -0.06817927 C1426.04204525 -0.06865798 1435.52285118 -0.06913942 1445.00365711 -0.06962538 C1533.48697847 -0.07416001 1621.97029984 -0.0776583 1710.45362128 -0.08012858 C1712.38161186 -0.08018269 1714.30960244 -0.0802368 1716.29601697 -0.08029255 C1841.1837443 -0.08377567 1966.07147109 -0.08241809 2090.95919837 -0.07773868 C2094.9883941 -0.07758879 2099.01758982 -0.07743898 2103.04678555 -0.07728926 C2147.52947578 -0.07563265 2192.012166 -0.07388099 2236.49485622 -0.07209625 C2239.50675406 -0.0719755 2239.50675406 -0.0719755 2242.57949832 -0.07185231 C2248.66668347 -0.07160825 2254.75386863 -0.07136406 2260.84105378 -0.0711198 C2262.85061769 -0.07103917 2264.8601816 -0.07095854 2266.93064139 -0.07087546 C2277.08452594 -0.07046778 2287.23841049 -0.07005868 2297.39229504 -0.06964711 C2499.39025603 -0.06146763 2701.38821399 -0.059597 3062.12064409 -0.09008842 C3128.89548281 -0.09622758 3195.67032153 -0.10230993 3262.44516028 -0.10805789 C3265.43532402 -0.10831591 3265.43532402 -0.10831591 3268.48589509 -0.10857915 C3393.30370979 -0.11933686 3518.12152389 -0.12522477 3642.93933906 -0.12561503 C3644.86672136 -0.12562155 3646.79410366 -0.12562807 3648.77989148 -0.12563478 C3735.31890943 -0.12591626 3821.85792732 -0.12492528 3908.39694524 -0.12274472 C3938.6636393 -0.12198521 3968.93033337 -0.12131124 3999.19702744 -0.12066456 C4006.72694649 -0.12050333 4014.25686553 -0.12033522 4021.78678458 -0.12016155 C4108.17367813 -0.11818618 4194.56057028 -0.1190056 4280.94746341 -0.12846628 C4282.81132224 -0.1286699 4284.67518106 -0.12887351 4286.59552046 -0.1290833 C4316.5793001 -0.13237099 4346.56307971 -0.13586513 4376.54685932 -0.13936454 C4461.6390081 -0.14928068 4546.73115475 -0.15694251 4631.82330407 -0.15019802 C4633.54895649 -0.15006193 4635.2746089 -0.14992584 4637.05255382 -0.14978563 C4674.69564547 -0.14677235 4712.33873691 -0.14261767 4749.98182831 -0.1373413 C4764.9936344 -0.13525312 4780.00544051 -0.13330831 4795.01724662 -0.1314067 C4796.65480424 -0.13119521 4798.29236186 -0.13098373 4799.97954244 -0.13076584 C4851.96424033 -0.12411942 4903.94892716 -0.12975683 4955.93362365 -0.14245806 C5007.10082007 -0.15490649 5058.26800015 -0.15524564 5109.43519565 -0.13783439 C5116.43700559 -0.13545335 5123.43881558 -0.13321163 5130.44062559 -0.13105325 C5132.49680718 -0.13041126 5132.49680718 -0.13041126 5134.59452779 -0.1297563 C5156.24023499 -0.12336218 5177.88591616 -0.13033392 5199.53161974 -0.14297656 C5220.69069709 -0.15506254 5241.84973321 -0.15303464 5263.00880738 -0.13570907 C5275.36162046 -0.12601966 5287.71431533 -0.12722526 5300.06712058 -0.1446714 C5308.24832592 -0.1551391 5316.42944124 -0.15113542 5324.61063779 -0.13531714 C5329.24097468 -0.12676811 5333.87107707 -0.12433389 5338.50140131 -0.13981383 C5379.60587106 -0.26807119 5379.60587106 -0.26807119 5399.15756644 8.00090417 C5399.97942435 8.34153893 5400.80128226 8.6821737 5401.64804496 9.03313073 C5415.82293181 15.1235491 5427.06880928 23.58258025 5437.97006644 34.37590417 C5438.64424613 34.98949792 5439.31842582 35.60309167 5440.01303519 36.23527917 C5456.95327484 51.89627875 5468.23568244 77.63414274 5469.97006644 100.37590417 C5470.12087704 105.27886131 5470.124556 110.18106456 5470.12744369 115.08590707 C5470.1319291 116.58178228 5470.13684143 118.07765627 5470.14214006 119.57352882 C5470.15545204 123.68541135 5470.16265415 127.79728526 5470.16884277 131.90918384 C5470.17664419 136.38469631 5470.19009536 140.86019245 5470.20279433 145.33569321 C5470.2270586 154.21100145 5470.24597084 163.0863138 5470.26316806 171.96163824 C5470.2775797 179.32622695 5470.29419576 186.69080793 5470.31226625 194.05538854 C5470.31487079 195.1169949 5470.31747534 196.17860126 5470.32015881 197.27237752 C5470.32548066 199.43758032 5470.330807 201.60278311 5470.33613777 203.76798589 C5470.39304502 227.00679004 5470.44141168 250.24560843 5470.48771905 273.48443576 C5470.49013239 274.69514283 5470.49254573 275.9058499 5470.49503221 277.15324506 C5470.49745234 278.36776007 5470.49987247 279.58227508 5470.50236594 280.83359357 C5470.52713752 293.21096632 5470.55360725 305.58833529 5470.58016051 317.96570432 C5470.83383509 436.34912618 5471.02696788 554.73259177 5471.10063995 930.81532433 C5471.09720357 957.07056272 5471.09439023 983.32580091 5471.09344901 1009.58103951 C5471.09342508 1010.24804762 5471.09340116 1010.91505573 5471.0933765 1011.60227621 C5471.09313554 1018.39752763 5471.09291588 1025.19277906 5471.09270647 1031.98803049 C5471.09040882 1106.50312428 5471.0846204 1181.01821768 5469.97006644 3767.37590417 C5384.59757543 3767.41002762 5299.22508429 3767.44382385 3958.30693661 3767.92992811 C3940.28931281 3767.93596696 3922.27168902 3767.94202082 3904.25406523 3767.94808414 C3785.77082491 3767.98795228 3667.28758445 3768.02737203 3011.82162894 3768.21965417 C3010.03081742 3768.2201233 3010.03081742 3768.2201233 3008.20382788 3768.2206019 C2889.18485727 3768.25177231 2770.1658862 3768.28106379 1397.11850394 3768.21965417 C1396.27530661 3768.21934169 1395.43210928 3768.21902922 1394.56336052 3768.21870727 C1312.77671375 3768.18838764 1230.99006798 3768.15559479 806.60555043 3767.94687493 C795.35982133 3767.94080142 784.11409222 3767.93475051 772.8683631 3767.92871657 C699.53937993 3767.88936758 626.21039709 3767.84945518 -116.02993356 3767.37590417 C-116.0848629 3660.78413954 -116.13942236 3554.19237473 -117.15263685 1029.93504278 C-117.15284653 1023.15037502 -117.15307274 1016.36570727 -117.15331613 1009.58103951 C-117.15334 1008.91510026 -117.15336387 1008.24916101 -117.15338847 1007.56304178 C-117.15436969 980.70214381 -117.15747548 953.84124628 -117.16101309 926.98034854 C-117.17574439 814.88912787 -117.1794967 702.79790411 -116.69575408 318.18861013 C-116.6601716 299.74337927 -116.62939208 281.2981451 -116.60122643 262.85290154 C-116.56961775 242.19737743 -116.53075075 221.54188119 -116.48207225 200.88638994 C-116.45740312 190.35386822 -116.43572757 179.82136266 -116.42276679 169.2888194 C-116.41198593 160.5351778 -116.39462534 151.78158201 -116.36832659 143.02797266 C-116.35528003 138.62184567 -116.34530563 134.21577226 -116.34403777 129.80962479 C-116.34281202 125.79834327 -116.33239408 121.78719177 -116.31482577 117.7759495 C-116.31010152 116.33857738 -116.30863511 114.90118963 -116.31094489 113.46381161 C-116.32710172 101.53334066 -115.36500442 89.96441364 -111.46743356 78.62590417 C-111.082165 77.49728967 -111.082165 77.49728967 -110.68911324 76.34587487 C-100.4738741 47.7043754 -79.34181349 24.390256 -52.06411324 11.07316979 C-35.3288861 3.24995518 -18.3894599 -0.09638445 0 0 Z M-67.02993356 45.37590417 C-67.73891793 46.00109948 -68.44790231 46.62629479 -69.17837106 47.27043542 C-86.26968624 63.31465422 -96.46713884 87.35414323 -97.21500117 110.61788944 C-97.31001737 115.61305303 -97.29325232 120.60796418 -97.27882253 125.60377988 C-97.28060795 127.54726272 -97.2832701 129.49074491 -97.28672312 131.4342255 C-97.29367698 136.7786783 -97.28818442 142.12305673 -97.28066691 147.46750608 C-97.27467869 153.30140238 -97.28033704 159.1352895 -97.28449242 164.9691858 C-97.29019108 175.23326629 -97.28848414 185.49732645 -97.28181134 195.76140591 C-97.27465407 206.82988582 -97.27190089 217.8983541 -97.27441083 228.96683618 C-97.27456717 229.66892827 -97.27472351 230.37102036 -97.27488459 231.09438797 C-97.27553696 233.95704544 -97.27622117 236.81970289 -97.27694542 239.68236033 C-97.28374901 266.57482661 -97.28068255 293.4672836 -97.2718216 320.35974893 C-97.26310931 346.87027588 -97.25854767 373.38079855 -97.25913011 399.89132699 C-97.25916263 401.58083974 -97.25919499 403.27035249 -97.25922718 404.95986524 C-97.25936445 411.77131333 -97.25953161 418.58276142 -97.25973382 425.3942095 C-97.26029408 444.59016208 -97.26012625 463.78611462 -97.25944577 482.98206719 C-97.25941473 483.86155573 -97.25938368 484.74104426 -97.2593517 485.64718396 C-97.25760585 532.79136163 -97.24644588 579.93553703 -97.23523095 627.07971322 C-97.23250658 638.53293953 -97.22981236 649.98616585 -97.22716866 661.43939218 C-97.22694951 662.38744342 -97.22673035 663.33549467 -97.22650456 664.31227474 C-97.2166071 707.26738263 -97.21165845 750.2224906 -97.20770957 793.17759939 C-97.20611916 810.45390766 -97.20442635 827.73021592 -97.20272981 845.00652417 C-97.20263636 845.96047379 -97.20254292 846.91442341 -97.20244664 847.89728059 C-97.19284051 945.8005107 -97.17796717 1043.7037407 -96.02993356 2805.37590417 C-93.96786325 2805.6072561 -93.96786325 2805.6072561 -92.72524606 2804.11809167 C-92.20704293 2803.50191979 -91.68883981 2802.88574792 -91.15493356 2802.25090417 C-90.53489449 2801.52258386 -89.91485543 2800.79426354 -89.27602731 2800.04387292 C-88.53481637 2799.16344323 -87.79360543 2798.28301354 -87.02993356 2797.37590417 C-85.09663354 2795.10147502 -83.15758346 2792.83199131 -81.21743356 2790.56340417 C-80.70382272 2789.96189538 -80.19021188 2789.36038659 -79.66103707 2788.74065026 C-75.58516519 2783.98323497 -71.39463213 2779.34642403 -67.16665231 2774.72356042 C-62.30508297 2770.12451118 -62.30508297 2770.12451118 -60.02993356 2764.37590417 C-59.36993356 2764.37590417 -58.70993356 2764.37590417 -58.02993356 2764.37590417 C-56.6155495 2762.80303733 -55.27388955 2761.16450421 -53.96743356 2759.50090417 C-50.91967491 2755.68754855 -47.82493015 2751.97781608 -44.52993356 2748.37590417 C-41.49136501 2745.04395659 -38.59933441 2741.64501034 -35.77993356 2738.12590417 C-31.68170833 2733.05327575 -27.29884204 2728.31682423 -22.83217965 2723.57268151 C-18.76855547 2719.23331565 -14.9883079 2714.72867212 -11.27212106 2710.08684167 C-8.79086726 2707.08685886 -6.181274 2704.22438387 -3.52993356 2701.37590417 C-0.05572019 2697.64265384 3.2707557 2693.85219037 6.47006644 2689.87590417 C11.40453804 2683.84488333 16.70451844 2678.12013836 21.97006644 2672.37590417 C22.30006644 2963.43590417 22.63006644 3254.49590417 22.97006644 3554.37590417 C1774.61006644 3554.37590417 3526.25006644 3554.37590417 5330.97006644 3554.37590417 C5330.97006644 2463.06590417 5330.97006644 1371.75590417 5330.97006644 247.37590417 C4275.96006644 247.37590417 3220.95006644 247.37590417 2133.97006644 247.37590417 C2141.75641006 237.36489095 2141.75641006 237.36489095 2145.84506644 233.00090417 C2149.16264229 229.40311075 2152.34041252 225.75177085 2155.40756644 221.93840417 C2159.54818611 216.8084329 2163.94273964 211.97125617 2168.41928519 207.13762292 C2172.63222615 202.57629175 2176.68439538 197.88568125 2180.71225394 193.16106042 C2181.73551379 191.96169008 2182.75895681 190.762476 2183.78256644 189.56340417 C2184.55842094 188.65425256 2184.55842094 188.65425256 2185.34994926 187.72673425 C2188.55496024 183.98538876 2191.82208148 180.31483487 2195.15756644 176.68840417 C2198.36651689 173.19330528 2201.43072481 169.63306577 2204.40756644 165.93840417 C2208.06577659 161.40273974 2211.9174961 157.11889247 2215.8838848 152.85661706 C2218.87433644 149.62396442 2221.70785652 146.30893651 2224.47006644 142.87590417 C2227.66938366 138.89960991 2230.99591589 135.10922119 2234.47006644 131.37590417 C2238.75642256 126.76934992 2242.76758655 122.00463144 2246.71616019 117.10246667 C2249.89719393 113.25435306 2253.26566259 109.59158935 2256.64194144 105.91496667 C2259.81461479 102.45483635 2262.89936486 98.92640287 2265.97006644 95.37590417 C2266.99089978 94.2092375 2268.01173311 93.04257084 2269.03256644 91.87590417 C2270.13703061 90.60532938 2271.24119525 89.33449417 2272.34506644 88.06340417 C2272.88179984 87.45198571 2273.41853324 86.84056725 2273.97153129 86.21062097 C2276.21006608 83.6212603 2277.87670054 81.65600189 2278.97006644 78.37590417 C2279.63006644 78.37590417 2280.29006644 78.37590417 2280.97006644 78.37590417 C2282.3844505 76.80303733 2283.72611045 75.16450421 2285.03256644 73.50090417 C2288.94052605 68.59692238 2293.0303111 63.95256587 2297.31772269 59.37199792 C2299.18261986 57.55100832 2299.18261986 57.55100832 2298.97006644 55.37590417 C2299.63006644 55.37590417 2300.29006644 55.37590417 2300.97006644 55.37590417 C2302.34218945 53.84395145 2303.64161104 52.24669336 2304.90756644 50.62590417 C2309.19122459 45.26268113 2313.71012322 40.21733455 2318.39194144 35.20012292 C2323.49752907 30.36506695 2323.49752907 30.36506695 2325.97006644 24.37590417 C2326.63006644 24.37590417 2327.29006644 24.37590417 2327.97006644 24.37590417 C2327.97006644 23.38590417 2327.97006644 22.39590417 2327.97006644 21.37590417 C2269.94157613 20.57884084 2211.92366928 20.22458241 2153.8899668 20.23453782 C2142.44557836 20.23628091 2131.00119352 20.23201771 2119.55680601 20.22776987 C2098.19098627 20.22000646 2076.82516819 20.21681351 2055.45934714 20.21632394 C2033.87673958 20.21581752 2012.29413416 20.21313665 1990.71152724 20.20791635 C1989.32324086 20.2075828 1987.93495448 20.20724934 1986.5466681 20.20691594 C1980.94706009 20.20556744 1975.34745209 20.20420412 1969.74784409 20.20282384 C1908.56898049 20.18776479 1847.39011737 20.18090003 1786.21125221 20.17640187 C1785.0553257 20.17631684 1785.0553257 20.17631684 1783.87604715 20.17623008 C1779.97763781 20.17594354 1776.07922848 20.17565851 1772.18081914 20.17537597 C1739.38133673 20.17299115 1706.58185453 20.16927992 1673.78237227 20.16533887 C1658.02806804 20.16344613 1642.2737638 20.16161751 1626.51945956 20.15980467 C1625.73577887 20.15971448 1624.95209818 20.15962429 1624.14466958 20.15953137 C1586.44833807 20.15519767 1548.75200653 20.1512689 1511.05567493 20.14780435 C1509.85019488 20.14769354 1509.85019488 20.14769354 1508.62036171 20.14758049 C1457.49989621 20.14289429 1406.37943076 20.14006547 1355.25896507 20.13841757 C1351.07540517 20.13828199 1346.89184527 20.13814296 1342.70828537 20.13800403 C1336.00172292 20.13778157 1329.29516047 20.1375602 1322.58859802 20.13734015 C1321.75760439 20.13731288 1320.92661075 20.1372856 1320.07043549 20.13725751 C1318.39097132 20.1372024 1316.71150715 20.13714728 1315.03204298 20.13709218 C1303.25229711 20.13670559 1291.47255124 20.13631763 1279.69280537 20.13592305 C1275.4779604 20.13578194 1271.26311542 20.13564186 1267.04827044 20.13550415 C1187.34871906 20.13289684 1107.64916963 20.12753748 1027.94961967 20.11162194 C1026.68854262 20.11137025 1026.68854262 20.11137025 1025.40198927 20.11111348 C999.12691143 20.10586138 972.85183366 20.10028748 946.5767559 20.09465417 C919.61111903 20.08887289 892.64548216 20.08314221 865.67984523 20.07769784 C864.84948175 20.07753003 864.01911827 20.07736222 863.16359226 20.07718933 C811.1664434 20.06669777 759.16929509 20.0598353 707.17214526 20.05683145 C706.36924984 20.05678463 705.56635441 20.05673782 704.73912883 20.05668959 C669.48180171 20.05463916 634.2244746 20.05339488 598.96714742 20.05304354 C584.78573899 20.05290028 570.60433056 20.05266163 556.42292213 20.05237948 C554.07184596 20.05233395 551.72076979 20.0522923 549.36969362 20.05225137 C513.42649515 20.05160559 477.4832989 20.04865351 441.54010166 20.03879079 C440.37815246 20.03847223 440.37815246 20.03847223 439.19272953 20.03814724 C426.7336396 20.03471891 414.27454973 20.03110589 401.81545986 20.02747084 C366.45797746 20.01715987 331.1004978 20.00837577 295.74301364 20.0103155 C295.02565856 20.01035424 294.30830348 20.01039298 293.56921037 20.01043289 C277.9199139 20.0113094 262.27061763 20.01302137 246.62132135 20.01555252 C240.38059099 20.01654924 234.13986062 20.0174359 227.89913024 20.01828774 C227.21839608 20.01838363 226.53766193 20.01847952 225.83629946 20.01857831 C203.59377726 20.02165751 181.35127312 20.01461587 159.10875419 20.00271438 C137.92551321 19.9915887 116.74229442 19.99112714 95.5590531 20.00208456 C83.13522731 20.00818959 70.71146843 20.00606331 58.28764893 19.99183259 C50.03972901 19.98320292 41.7918584 19.98543283 33.54394154 19.9965313 C28.86706261 20.00251955 24.19031496 20.00387437 19.51344469 19.99184644 C15.26251997 19.98100186 11.01183583 19.98419001 6.76092226 19.99813911 C5.24382297 20.00074375 3.72670418 19.99844653 2.20962439 19.99032586 C-24.41656164 19.85745407 -46.85637468 27.48201991 -67.02993356 45.37590417 Z " fill="#000000" transform="translate(1323.0299335569143,2012.6240958310664)"/>
<path d="M0 0 C0.33 0 0.66 0 1 0 C1 1208.79 1 2417.58 1 3663 C1857.58 3663 3714.16 3663 5627 3663 C5627 2454.21 5627 1245.42 5627 0 C5627.33 0 5627.66 0 5628 0 C5628 1208.79 5628 2417.58 5628 3663 C5843.49 3663 6058.98 3663 6281 3663 C6281 3707.22 6281 3751.44 6281 3797 C6199.12116206 3831.11618247 6111.51184547 3851.95250726 6024.3125 3867.125 C6023.16938354 3867.32398895 6022.02626709 3867.52297791 6020.84851074 3867.72799683 C6017.62528063 3868.28575115 6014.40090668 3868.83613471 6011.17578125 3869.3828125 C6010.21672379 3869.54786789 6009.25766632 3869.71292328 6008.26954651 3869.88298035 C6006.93789711 3870.10550224 6006.93789711 3870.10550224 6005.5793457 3870.33251953 C6004.81145218 3870.46224152 6004.04355865 3870.5919635 6003.25239563 3870.72561646 C6001 3871 6001 3871 5998.27629089 3870.97921753 C5996.0325822 3870.73387723 5996.0325822 3870.73387723 5995 3872 C5992.80023376 3872.40397852 5990.58930717 3872.7478353 5988.375 3873.0625 C5987.16585937 3873.23910156 5985.95671875 3873.41570312 5984.7109375 3873.59765625 C5981.10638011 3873.98846616 5977.62223645 3874.06983746 5974 3874 C5974 3874.33 5974 3874.66 5974 3875 C5973.00097656 3875.06058594 5972.00195312 3875.12117188 5970.97265625 3875.18359375 C5969.68230469 3875.26738281 5968.39195313 3875.35117187 5967.0625 3875.4375 C5965.77472656 3875.51871094 5964.48695312 3875.59992188 5963.16015625 3875.68359375 C5960.13976043 3875.64919188 5960.13976043 3875.64919188 5959 3877 C5955.17040956 3877.68018035 5951.2975792 3878.08988339 5947.4375 3878.5625 C5946.36435547 3878.70107422 5945.29121094 3878.83964844 5944.18554688 3878.98242188 C5939.53377085 3879.56068919 5934.97723988 3880.0849346 5930.28515625 3880.02734375 C5929.20105469 3880.01832031 5928.11695312 3880.00929687 5927 3880 C5926.67 3880.33 5926.34 3880.66 5926 3881 C5923.96994518 3881 5921.93935573 3880.99642412 5919.91015625 3880.9375 C5917.912423 3880.86973661 5917.912423 3880.86973661 5916 3882 C5914.05206201 3882 5912.10403138 3881.99735638 5910.15625 3881.97265625 C5906.26020463 3882.02206262 5902.46733175 3882.64308147 5898.6875 3883.5625 C5895.17373897 3884.13450761 5891.75986732 3884.02272545 5888.20703125 3883.9375 C5885.95660804 3883.84598114 5885.95660804 3883.84598114 5884 3885 C5881.43212365 3885.06940206 5878.88037682 3884.99721807 5876.3125 3884.9375 C5873.97231107 3884.83764219 5873.97231107 3884.83764219 5872 3886 C5869.20481593 3886.06998896 5866.42410998 3885.99705161 5863.62890625 3885.9375 C5860.88888663 3885.87393186 5860.88888663 3885.87393186 5858 3887 C5854.67280753 3887.06860191 5851.35841688 3886.99744895 5848.03125 3886.9375 C5844.95245029 3886.85106977 5844.95245029 3886.85106977 5842 3888 C5838.21773831 3888.06955884 5834.44632601 3887.99718069 5830.6640625 3887.9375 C5827.19559264 3887.88023375 5827.19559264 3887.88023375 5824.640625 3888.5 C5819.65798677 3889.44345813 5814.5348397 3889.03559586 5809.48046875 3888.9609375 C5808.62324219 3888.95320313 5807.76601563 3888.94546875 5806.8828125 3888.9375 C5806.11340332 3888.92589844 5805.34399414 3888.91429688 5804.55126953 3888.90234375 C5801.88063106 3888.95524907 5801.88063106 3888.95524907 5798.79715394 3889.49828732 C5795.04268663 3889.99435988 5791.47941057 3890.12502432 5787.69426735 3890.12505908 C5786.98762052 3890.12643037 5786.28097369 3890.12780165 5785.55291332 3890.12921449 C5783.18408378 3890.13259068 5780.81531988 3890.12884778 5778.4464916 3890.12514383 C5776.72054398 3890.12611322 5774.99459655 3890.12752109 5773.2686496 3890.12932692 C5768.49799284 3890.13303595 5763.72735643 3890.13048108 5758.95670028 3890.126955 C5753.75102715 3890.1242111 5748.54535692 3890.12727387 5743.33968403 3890.12959861 C5734.15829713 3890.13289034 5724.97691618 3890.13243222 5715.79552922 3890.12958724 C5702.01058574 3890.12533675 5688.22564701 3890.1268626 5674.44070335 3890.12951927 C5650.84410254 3890.13389683 5627.24750392 3890.13349321 5603.65090299 3890.13056196 C5579.59259984 3890.12759335 5555.53429809 3890.1268147 5531.47599483 3890.12868617 C5529.95311523 3890.12880326 5528.43023563 3890.12892035 5526.86120817 3890.12904099 C5519.08617571 3890.12964847 5511.31114325 3890.13029071 5503.5361108 3890.1309446 C5446.67326134 3890.1356503 5389.81041271 3890.13539627 5332.94756317 3890.13266373 C5275.28867322 3890.12990784 5217.62978385 3890.12932058 5159.97089386 3890.13140106 C5158.15447404 3890.13146558 5156.33805423 3890.13153009 5154.46659139 3890.13159656 C5137.8210016 3890.13218807 5121.17541182 3890.13280197 5104.52982204 3890.13344277 C5062.78378212 3890.13504725 5021.0377422 3890.1363031 4979.29170227 3890.13732314 C4976.42182557 3890.13739349 4976.42182557 3890.13739349 4973.49397157 3890.13746527 C4879.10789914 3890.13974581 4784.72182682 3890.13820711 4690.33575439 3890.13629532 C4686.19949525 3890.13621168 4682.06323611 3890.13612805 4677.92697697 3890.13604442 C4674.85207754 3890.13598224 4674.85207754 3890.13598224 4671.71505892 3890.1359188 C4644.68321077 3890.13537231 4617.65136262 3890.1348357 4590.61951447 3890.1343255 C4588.5533473 3890.13428634 4586.48718014 3890.13424718 4584.35840184 3890.13420683 C4488.68900701 3890.13240705 4393.01961223 3890.13283356 4297.35021739 3890.13375596 C4286.91920345 3890.13385576 4276.48818951 3890.13395126 4266.05717556 3890.13404724 C4234.61824383 3890.13433782 4203.17931211 3890.13463475 4171.74038038 3890.13494483 C4075.86499602 3890.13588945 3979.98961166 3890.13648963 3884.11422729 3890.13679314 C3880.91187226 3890.13680344 3880.91187226 3890.13680344 3877.64482319 3890.13681395 C3739.34419891 3890.13725282 3601.0435747 3890.13615129 3462.74295044 3890.13394356 C3460.53446757 3890.13390844 3458.32598471 3890.13387332 3456.05057812 3890.13383714 C3382.07310128 3890.13266073 3308.09562443 3890.13140469 3234.11814759 3890.13014051 C3010.39422998 3890.12631994 2786.67031258 3890.12422641 2387.13287733 3890.13025584 C2313.17426807 3890.13151901 2239.21565882 3890.1327675 2165.25704956 3890.13394356 C2163.04919237 3890.1339788 2160.84133517 3890.13401405 2158.56657321 3890.13405036 C2020.3396397 3890.13625504 1882.11270623 3890.13723784 1743.88577271 3890.13679314 C1741.75157062 3890.13678638 1739.61736854 3890.13677962 1737.41849366 3890.13677266 C1641.59669947 3890.13646597 1545.77490528 3890.13582772 1449.95311109 3890.13488263 C1418.52788075 3890.13457307 1387.1026504 3890.13427874 1355.67742006 3890.13398959 C1345.25241739 3890.13389359 1334.82741471 3890.13379624 1324.40241204 3890.13369573 C1228.72843651 3890.13277611 1133.05446105 3890.13251215 1037.38048553 3890.1343255 C1034.28319229 3890.13438396 1034.28319229 3890.13438396 1031.12332747 3890.1344436 C1004.10655932 3890.13495543 977.08979118 3890.13549806 950.07302303 3890.13604442 C948.02469897 3890.13608584 945.97637491 3890.13612725 943.86598042 3890.13616992 C939.73346065 3890.13625348 935.60094087 3890.13633711 931.46842109 3890.13642082 C837.2150466 3890.13832494 742.96167223 3890.13963366 648.70829773 3890.13732314 C646.79755493 3890.13727645 644.88681212 3890.13722977 642.91816802 3890.13718166 C601.24131134 3890.13615173 559.56445468 3890.13483228 517.88759802 3890.13322786 C501.26810073 3890.13259193 484.64860343 3890.13199134 468.02910614 3890.13140106 C466.21615352 3890.13133565 464.4032009 3890.13127023 462.53531033 3890.13120283 C404.94507583 3890.12914125 347.35484194 3890.13015034 289.76460749 3890.13291783 C233.0982636 3890.13562739 176.43192065 3890.13531521 119.76557686 3890.13054947 C112.0183863 3890.12989826 104.27119574 3890.12928183 96.52400517 3890.12868617 C95.0072366 3890.12856819 93.49046803 3890.1284502 91.92773677 3890.12832864 C67.93758307 3890.1265536 43.9474308 3890.12812739 19.95727727 3890.13110753 C-3.47007503 3890.1339498 -26.89742498 3890.13328572 -50.32477705 3890.12877072 C-64.01730826 3890.12623876 -77.70983283 3890.12646205 -91.40236365 3890.13070487 C-100.45298058 3890.13324023 -109.50359237 3890.13220488 -118.55420875 3890.12816307 C-123.68800897 3890.12597266 -128.82179592 3890.12537705 -133.95559551 3890.12917154 C-138.60353016 3890.13257893 -143.25144001 3890.1314375 -147.89937316 3890.12657443 C-149.57016174 3890.12563603 -151.24095231 3890.12638607 -152.91173911 3890.12899855 C-155.17261222 3890.13229353 -157.43339797 3890.12944642 -159.69426735 3890.12505908 C-161.57197675 3890.12504184 -161.57197675 3890.12504184 -163.48761966 3890.12502424 C-167.05681473 3889.99797766 -170.47373278 3889.54945477 -174 3889 C-175.56792564 3888.93805726 -177.1380766 3888.91282174 -178.70703125 3888.9375 C-179.53605957 3888.94587891 -180.36508789 3888.95425781 -181.21923828 3888.96289062 C-182.07501465 3888.97513672 -182.93079102 3888.98738281 -183.8125 3889 C-189.88480142 3889.04841117 -195.80681406 3888.98484901 -201.83984375 3888.21875 C-205.12666729 3887.88590711 -208.3955131 3887.990131 -211.6953125 3888.03125 C-214.8432947 3887.9885655 -217.88720604 3887.45277003 -221 3887 C-223.29346594 3886.96769766 -225.58161134 3887.00025826 -227.875 3887.03125 C-230.64347141 3886.99053719 -233.27349524 3886.46408592 -236 3886 C-237.32 3886 -238.64 3886 -240 3886 C-243.51650556 3886 -246.55489026 3885.59914952 -250 3885 C-251.051875 3885 -252.10375 3885 -253.1875 3885 C-256 3885 -256 3885 -259 3884 C-260.45767916 3883.95632422 -261.91720995 3883.96019686 -263.375 3884 C-266.7581979 3884.03813589 -269.69369164 3883.76299424 -273 3883 C-277.03023842 3882.41496539 -280.73835091 3882 -284.8125 3882 C-288 3882 -288 3882 -291 3881 C-292.175625 3881 -293.35125 3881 -294.5625 3881 C-298 3881 -298 3881 -300 3880 C-301.155 3880 -302.31 3880 -303.5 3880 C-307 3880 -307 3880 -309 3879 C-311.20479336 3878.79167307 -313.4143562 3878.63254395 -315.625 3878.5 C-329.87234043 3877.56382979 -329.87234043 3877.56382979 -333 3876 C-335.14247238 3875.79459652 -337.28938602 3875.63410745 -339.4375 3875.5 C-342.89448578 3875.28369698 -345.71046711 3875.09651096 -349 3874 C-350.39429657 3873.80165107 -351.79377648 3873.63821002 -353.1953125 3873.5 C-353.99324219 3873.4175 -354.79117187 3873.335 -355.61328125 3873.25 C-357.29549645 3873.08256334 -358.97778917 3872.91590369 -360.66015625 3872.75 C-366.89692586 3872.10307414 -366.89692586 3872.10307414 -368 3871 C-369.47771696 3870.83380012 -370.96129979 3870.71974221 -372.4453125 3870.625 C-380.67271093 3869.94403847 -388.75161788 3868.42821328 -396.875 3867 C-398.46868291 3866.72357129 -400.06243256 3866.44752703 -401.65625 3866.171875 C-413.49241873 3864.11763958 -413.49241873 3864.11763958 -419 3863 C-420.34379154 3862.73862093 -421.68781276 3862.47842166 -423.03198242 3862.21899414 C-450.86668883 3856.83673274 -478.50146569 3850.90186175 -506 3844 C-506.87483032 3843.7804364 -507.74966064 3843.5608728 -508.65100098 3843.33465576 C-639.63061615 3810.36938385 -639.63061615 3810.36938385 -653 3797 C-653 3752.78 -653 3708.56 -653 3663 C-437.51 3663 -222.02 3663 0 3663 C0 2454.21 0 1245.42 0 0 Z " fill="#8B8C90" transform="translate(1186,2117)"/>
<path d="M0 0 C1.58704208 -0.00186055 3.17408333 -0.00459765 4.76112258 -0.00812243 C9.11456909 -0.0152644 13.46792466 -0.01001155 17.82136759 -0.00269845 C22.57828079 0.00306417 27.3351823 -0.00284734 32.09209499 -0.00724217 C40.45905389 -0.01336676 48.82598614 -0.01204979 57.19294464 -0.00589748 C69.71968731 0.00327494 82.2464097 0.0008914 94.77315392 -0.0037467 C116.12480715 -0.01131487 137.47645015 -0.00938829 158.82810313 -0.00232154 C180.47129903 0.00480544 202.11448874 0.00760071 223.75768572 0.00503892 C224.7817046 0.00492071 224.7817046 0.00492071 225.82641073 0.00480012 C232.0829384 0.0040768 238.33946606 0.00330679 244.59599371 0.0024809 C260.28662315 0.00041345 275.9772526 -0.00097497 291.66788214 -0.00190824 C292.38694734 -0.0019514 293.10601254 -0.00199455 293.84686759 -0.00203901 C329.30096292 -0.00410409 364.75505663 0.00140196 400.20915133 0.00752228 C412.69471547 0.00967386 425.18027962 0.0118056 437.66584378 0.01382822 C438.44211464 0.01395415 439.21838549 0.01408007 440.0181797 0.01420982 C476.00582284 0.02001228 511.99346562 0.02101161 547.98110917 0.02086373 C550.33619464 0.02085465 552.69128011 0.02084824 555.04636557 0.02084277 C569.24940199 0.02080956 583.4524384 0.02074076 597.65547481 0.02062567 C632.97078464 0.02034516 668.28609444 0.02073479 703.60140425 0.02161473 C704.80748758 0.02164438 704.80748758 0.02164438 706.03793622 0.02167462 C758.12490565 0.02296366 810.2118744 0.02711238 862.29884344 0.03347272 C863.54632872 0.03362483 863.54632872 0.03362483 864.81901572 0.03378001 C891.82656595 0.03707623 918.83411615 0.04056278 945.84166635 0.04406675 C972.15453061 0.04748034 998.46739489 0.05082431 1024.78025919 0.05392998 C1025.6221782 0.05402939 1026.46409721 0.0541288 1027.33152891 0.05423122 C1107.12534705 0.06362633 1186.91916475 0.0647759 1266.71298336 0.06426106 C1270.93238601 0.06423418 1275.15178867 0.06420929 1279.37119132 0.06418429 C1284.42935379 0.06415418 1289.48751625 0.06412393 1294.54567872 0.06409302 C1312.18851886 0.06398523 1329.831359 0.06388601 1347.47419914 0.06380389 C1349.98587253 0.06379193 1352.49754591 0.06377918 1355.00921929 0.06376626 C1406.16482054 0.06350778 1457.3204216 0.06453434 1508.47602278 0.06710118 C1509.28030169 0.06714148 1510.0845806 0.06718177 1510.9132316 0.06722329 C1547.8391779 0.06907922 1584.76512417 0.07134875 1621.69107042 0.07395099 C1624.0675422 0.07411843 1626.44401398 0.07428544 1628.82048576 0.07445235 C1633.56375805 0.07478557 1638.30703033 0.07511965 1643.05030261 0.07545411 C1643.83167163 0.07550919 1644.61304064 0.07556427 1645.4180875 0.07562101 C1653.28869751 0.0761761 1661.15930751 0.07673398 1669.02991752 0.0773059 C1704.21718515 0.07986239 1739.40445267 0.08190637 1774.5917204 0.08229059 C1776.152747 0.08230827 1777.71377359 0.08232598 1779.27480019 0.08234371 C1785.50198446 0.08241344 1791.72916873 0.08247835 1797.95635299 0.08254119 C1838.76118706 0.08295347 1879.5660208 0.0835247 1920.37085456 0.08903414 C1921.09237617 0.08913149 1921.81389778 0.08922884 1922.55728368 0.08932914 C1938.31824237 0.09146883 1954.079201 0.09391242 1969.84015959 0.09665384 C1975.43689522 0.09762443 1981.03363085 0.0985715 1986.63036649 0.09950553 C1988.01778665 0.09973711 1989.4052068 0.09996977 1990.79262696 0.10020351 C2013.01977664 0.10393322 2035.24692455 0.10439746 2057.47407452 0.10321739 C2078.75525354 0.10216193 2100.03642968 0.10478174 2121.31760782 0.11106751 C2132.65819288 0.11432528 2143.99877276 0.11616228 2155.33935808 0.11330692 C2211.57721267 0.10014172 2267.79920345 0.454072 2324.031663 1.24954766 C2324.031663 2.23954766 2324.031663 3.22954766 2324.031663 4.24954766 C2323.371663 4.24954766 2322.711663 4.24954766 2322.031663 4.24954766 C2321.78545206 4.8154461 2321.53924113 5.38134454 2321.28556925 5.96439141 C2319.81630076 8.64203024 2318.05413865 10.57998378 2315.969163 12.81204766 C2310.52076886 18.75176237 2305.42916978 24.95926538 2300.42619425 31.27689141 C2299.33615169 32.63544886 2298.19103168 33.94964944 2297.031663 35.24954766 C2296.371663 35.24954766 2295.711663 35.24954766 2295.031663 35.24954766 C2294.66621378 36.09452813 2294.66621378 36.09452813 2294.29338175 36.95657891 C2292.79318621 39.68294047 2290.96988038 41.66498141 2288.844163 43.93704766 C2285.10329648 47.99769794 2281.70130822 52.1784958 2278.44181925 56.63236016 C2277.74379191 57.43286797 2277.74379191 57.43286797 2277.031663 58.24954766 C2276.371663 58.24954766 2275.711663 58.24954766 2275.031663 58.24954766 C2274.66621378 59.09259454 2274.66621378 59.09259454 2274.29338175 59.95267266 C2272.78985364 62.68974551 2270.96466552 64.70750707 2268.844163 66.99954766 C2268.03334269 67.8851336 2267.22252238 68.77071954 2266.38713175 69.68314141 C2265.60982706 70.53005547 2264.83252238 71.37696954 2264.031663 72.24954766 C2259.81860421 76.96705251 2255.73047883 81.78680408 2251.656663 86.62454766 C2247.54975732 91.4994798 2243.3537059 96.27767528 2239.0707255 100.99954766 C2233.64450141 106.98710527 2228.42716806 113.14530587 2223.22404581 119.32645196 C2220.34529493 122.733762 2217.41079933 126.07630008 2214.406663 129.37454766 C2211.37403034 132.70829279 2208.48418184 136.11521577 2205.656663 139.62454766 C2201.49202931 144.77209315 2197.07861159 149.63307154 2192.58244425 154.48782891 C2186.83405473 160.71158295 2181.37051178 167.18348905 2175.86052042 173.61746758 C2159.83975328 192.31868471 2159.83975328 192.31868471 2152.781663 199.99954766 C2149.57540501 203.49540314 2146.51266147 207.05978032 2143.531663 210.74954766 C2142.83298011 211.59533069 2142.13429723 212.44111373 2141.41444213 213.31252655 C2139.86860387 215.2179317 2138.36785721 217.16116882 2136.92356489 219.14465173 C2133.64065351 223.32038906 2130.95700722 226.64855425 2125.78089442 228.26427036 C2121.92222724 228.65574731 2118.14281152 228.70115091 2114.27312034 228.62214315 C2112.78161427 228.63238088 2111.29013499 228.6474412 2109.79872007 228.66685044 C2105.69600693 228.70627126 2101.59619948 228.67725692 2097.49359871 228.63712885 C2093.0141734 228.60553144 2088.53512915 228.63802548 2084.0557212 228.66226747 C2076.174909 228.6960777 2068.29495103 228.68890532 2060.41415054 228.65521461 C2048.63955311 228.6050912 2036.86561356 228.61831175 2025.09096821 228.64416839 C2005.01346648 228.68640511 1984.93629125 228.67629129 1964.85879499 228.63822943 C1944.28658014 228.59945343 1923.71455597 228.58531598 1903.14230758 228.59996444 C1901.83378977 228.6008818 1900.52527196 228.60179916 1899.17710209 228.60274432 C1893.8470239 228.60656897 1888.51694587 228.6105565 1883.18686801 228.61481818 C1868.20721625 228.62678462 1853.2275636 228.63518912 1838.24790829 228.64118862 C1837.56338764 228.64146548 1836.87886699 228.64174233 1836.17360329 228.64202757 C1802.63453866 228.65527649 1769.09552208 228.62778659 1735.55647379 228.59703606 C1723.99120205 228.58645944 1712.42593021 228.57603108 1700.86065775 228.56626672 C1699.79413785 228.56536551 1699.79413785 228.56536551 1698.7060721 228.56444611 C1646.26617304 228.52048114 1593.82632868 228.55138041 1541.38639933 228.56851739 C1385.72648188 228.58456934 1230.06656649 228.50490667 1074.406663 228.43704766 C726.792913 228.37517266 379.179163 228.31329766 21.031663 228.24954766 C20.701663 1318.89954766 20.371663 2409.54954766 20.031663 3533.24954766 C1771.011663 3533.24954766 3521.991663 3533.24954766 5326.031663 3533.24954766 C5326.031663 2442.26954766 5326.031663 1351.28954766 5326.031663 227.24954766 C5326.361663 227.24954766 5326.691663 227.24954766 5327.031663 227.24954766 C5327.031663 1318.55954766 5327.031663 2409.86954766 5327.031663 3534.24954766 C3575.391663 3534.24954766 1823.751663 3534.24954766 19.031663 3534.24954766 C18.701663 3243.18954766 18.371663 2952.12954766 18.031663 2652.24954766 C7.82730952 2663.20300381 7.82730952 2663.20300381 -1.7261495 2674.53861016 C-4.2074025 2677.53859201 -6.81698007 2680.40108418 -9.468337 2683.24954766 C-12.91997754 2686.95814301 -16.23355994 2690.73460843 -19.405837 2694.68704766 C-22.77180163 2698.87192319 -26.30011528 2702.83267197 -29.968337 2706.74954766 C-34.44499812 2711.53004501 -38.64906621 2716.45125363 -42.749587 2721.56204766 C-45.89267544 2725.36916887 -49.25207332 2728.96383386 -52.6011495 2732.58939141 C-55.46696955 2735.80989217 -58.05605804 2739.18485707 -60.593337 2742.66751641 C-61.047087 2743.18958672 -61.500837 2743.71165704 -61.968337 2744.24954766 C-62.628337 2744.24954766 -63.288337 2744.24954766 -63.968337 2744.24954766 C-64.21454794 2744.8154461 -64.46075887 2745.38134454 -64.71443075 2745.96439141 C-66.18369924 2748.64203024 -67.94586135 2750.57998378 -70.030837 2752.81204766 C-73.22219511 2756.28753305 -76.27289225 2759.8136584 -79.218337 2763.49954766 C-83.48110872 2768.78266367 -88.04769248 2773.73141255 -92.71540731 2778.6548211 C-95.6852839 2781.69910721 -95.6852839 2781.69910721 -97.968337 2785.24954766 C-98.628337 2785.24954766 -99.288337 2785.24954766 -99.968337 2785.24954766 C-100.04520903 2701.73702103 -100.12052988 2618.22449297 -101.19247544 827.97742553 C-101.19325976 823.16423802 -101.19405039 818.35105052 -101.19484049 813.53786301 C-101.19499661 812.58602276 -101.19515272 811.6341825 -101.19531357 810.6534986 C-101.19610108 805.85227821 -101.1968896 801.05105782 -101.19767983 796.24983743 C-101.19783607 795.3004129 -101.19799232 794.35098837 -101.1981533 793.3727934 C-101.19846883 791.45602307 -101.19878452 789.53925274 -101.19910038 787.62248242 C-101.19988782 782.83917301 -101.20066982 778.05586361 -101.20144084 773.27255421 C-101.20852306 729.37759919 -101.21773943 685.48264647 -101.23423666 641.58769387 C-101.23459226 640.64077539 -101.23494785 639.69385691 -101.23531423 638.71824393 C-101.24104699 623.48399284 -101.246968 608.24974183 -101.25288867 593.01549081 C-101.26968887 549.75041758 -101.28483794 506.48534641 -101.28898901 463.22026986 C-101.28907368 462.34213576 -101.28915835 461.46400167 -101.28924559 460.55925745 C-101.2910574 441.3981673 -101.29198917 422.2370772 -101.29206201 403.07598697 C-101.29209736 396.2760497 -101.29220591 389.47611244 -101.29235526 382.67617518 C-101.29239225 380.98996091 -101.29242602 379.30374664 -101.29245656 377.61753237 C-101.29298049 351.15450048 -101.30256226 324.69148233 -101.31730795 298.22845483 C-101.33179033 272.1557988 -101.33705332 246.08315915 -101.32897285 220.01049978 C-101.32786631 216.43797001 -101.32686332 212.86544021 -101.32592195 209.2929104 C-101.3257335 208.59349442 -101.32554504 207.89407845 -101.32535087 207.17346806 C-101.32265163 196.14849266 -101.32995179 185.12354801 -101.3415356 174.09857932 C-101.35266723 163.30734902 -101.35286286 152.51616426 -101.34215974 141.72493334 C-101.33676677 135.98034836 -101.33605662 130.23587093 -101.34866479 124.49129485 C-101.36002694 119.2738566 -101.35745491 114.05661369 -101.34399813 108.83918212 C-101.34157564 106.97266991 -101.34410759 105.10614246 -101.35239476 103.23964709 C-101.47049451 74.7647745 -94.48883348 48.92990297 -74.062087 28.24954766 C-52.92462606 7.53589546 -29.33460179 -0.10301617 0 0 Z " fill="#545453" transform="translate(1326.9683369994164,2032.7504523396492)"/>
<path d="M0 0 C1.57485316 -0.00291736 3.14970431 -0.00714826 4.72455091 -0.01254927 C9.02338623 -0.02354214 13.32201443 -0.01609107 17.62084311 -0.00543349 C22.33198366 0.00287288 27.04309712 -0.00641497 31.75423537 -0.01336433 C40.04522525 -0.02319391 48.33615553 -0.02189945 56.62714595 -0.01333022 C69.07507775 -0.00052794 81.52296241 -0.00517628 93.97089609 -0.01312632 C115.2834692 -0.0262301 136.5960205 -0.02506393 157.90859485 -0.01625439 C179.62694565 -0.00733727 201.34528256 -0.00502016 223.06363463 -0.01062702 C225.1285337 -0.01115393 225.1285337 -0.01115393 227.2351479 -0.01169148 C234.2637908 -0.01351399 241.29243367 -0.01544069 248.32107653 -0.01740231 C299.67821643 -0.03150626 351.035348 -0.0307634 402.39248872 -0.02255968 C454.45764557 -0.01428763 506.5227966 -0.01253379 558.58795381 -0.01877169 C560.22907575 -0.01896523 561.8701977 -0.01915877 563.56105061 -0.01935818 C578.60055967 -0.02113275 593.64006872 -0.02297445 608.67957776 -0.02489681 C646.3953183 -0.02970984 684.11105891 -0.03347758 721.82679963 -0.03653792 C723.55521478 -0.03667863 725.28362994 -0.03681933 727.06442131 -0.0369643 C812.30258709 -0.04380359 897.54075184 -0.03919086 982.77891755 -0.03345446 C986.51363398 -0.03320355 990.24835041 -0.03295265 993.98306684 -0.03270177 C996.75946535 -0.03251522 996.75946535 -0.03251522 999.59195272 -0.0323249 C1024.00016565 -0.03068539 1048.40837857 -0.02907557 1072.8165915 -0.02754501 C1074.68226683 -0.02742753 1076.54794216 -0.02731005 1078.47015311 -0.027189 C1164.88232007 -0.02178805 1251.29448652 -0.02306976 1337.70665356 -0.02583638 C1347.13025749 -0.02613577 1356.55386143 -0.02642227 1365.97746536 -0.02671021 C1394.38054277 -0.02758196 1422.78362019 -0.02847278 1451.1866976 -0.029403 C1537.80241885 -0.03223676 1624.4181401 -0.03403736 1711.0338614 -0.03494791 C1713.92685213 -0.03497882 1713.92685213 -0.03497882 1716.87828713 -0.03501035 C1841.80551168 -0.03632681 1966.73273565 -0.03302306 2091.65996003 -0.02639917 C2093.65468034 -0.02629382 2095.64940066 -0.02618846 2097.70456704 -0.02607992 C2164.52028833 -0.02255075 2231.33600961 -0.0187826 2298.15173089 -0.01499002 C2500.21233904 -0.00352849 2702.2729451 0.00275224 3063.1244573 -0.01533602 C3129.92319746 -0.01912558 3196.72193763 -0.02287108 3263.5206778 -0.02639917 C3266.5119126 -0.02655777 3266.5119126 -0.02655777 3269.56357638 -0.02671958 C3394.42464314 -0.03333431 3519.2857095 -0.03628189 3644.14677644 -0.03494791 C3646.07480098 -0.03492764 3648.00282552 -0.03490737 3649.98927504 -0.03488649 C3736.55669962 -0.03396637 3823.12412416 -0.03205157 3909.69154869 -0.0292164 C3938.08219313 -0.02828773 3966.47283756 -0.02740473 3994.863482 -0.02653726 C4004.28165352 -0.02624928 4013.69982504 -0.02595722 4023.11799655 -0.02565568 C4109.53334674 -0.02289741 4195.94869623 -0.02210337 4282.36404634 -0.02754501 C4284.22854167 -0.02766193 4286.09303701 -0.02777884 4288.0140322 -0.0278993 C4312.40854514 -0.02943474 4336.80305807 -0.03106266 4361.19757099 -0.03270177 C4363.04704773 -0.03282601 4364.89652448 -0.03295025 4366.80204597 -0.03307825 C4370.53338042 -0.03332893 4374.26471487 -0.03357983 4377.99604932 -0.03383095 C4463.11531268 -0.03954441 4548.23457481 -0.04346718 4633.35383821 -0.03653792 C4635.07998371 -0.03639786 4636.80612922 -0.0362578 4638.58458216 -0.03611349 C4676.23809158 -0.03302345 4713.89160086 -0.02906497 4751.5451101 -0.02425208 C4766.56096807 -0.02234432 4781.57682605 -0.02054254 4796.59268403 -0.01877169 C4798.23068413 -0.01857544 4799.86868422 -0.01837919 4801.55632069 -0.018177 C4853.55769477 -0.01199594 4905.55906285 -0.01501537 4957.56043648 -0.023322 C5008.7426229 -0.0314571 5059.9247999 -0.0305013 5111.10698526 -0.0162169 C5118.11032455 -0.01426338 5125.11366387 -0.01241408 5132.1170032 -0.01062702 C5134.17363904 -0.01009608 5134.17363904 -0.01009608 5136.27182308 -0.00955441 C5157.92510208 -0.00423707 5179.57836671 -0.00894071 5201.23164403 -0.01789109 C5222.39641006 -0.02643494 5243.56115264 -0.02439784 5264.72591634 -0.01088067 C5277.08313503 -0.00330752 5289.44028747 -0.00391118 5301.79750227 -0.0166831 C5309.98033964 -0.02432611 5318.1631261 -0.02112814 5326.34595803 -0.00905772 C5330.97800994 -0.00252801 5335.6099301 -0.00059941 5340.24197538 -0.01208311 C5344.44934647 -0.02242819 5348.65647334 -0.01872113 5352.86383029 -0.0042918 C5354.36314868 -0.00151437 5355.86248741 -0.00361507 5357.3617873 -0.01156414 C5371.84281073 -0.08302425 5386.28960895 1.65849406 5400.02781892 6.4379315 C5400.89197419 6.73320738 5401.75612947 7.02848326 5402.64647126 7.33270689 C5420.94372407 13.85982629 5436.52113213 24.06732901 5450.59031892 37.3754315 C5451.91869782 38.58972838 5451.91869782 38.58972838 5453.27391267 39.8285565 C5475.36629958 60.76148481 5490.16338941 92.62106024 5491.04356189 123.12596504 C5491.125336 128.80538011 5491.11190267 134.48259281 5491.0871129 140.16238793 C5491.09058015 142.76202419 5491.09580173 145.36165859 5491.10260486 147.96128826 C5491.11457774 153.61507418 5491.11182703 159.26870132 5491.0992599 164.92248375 C5491.08047799 173.41082401 5491.08510539 181.89904621 5491.09405605 190.38739687 C5491.10870926 204.92275249 5491.10440247 219.4580475 5491.08985165 233.99340073 C5491.07511186 248.79982345 5491.06922849 263.60621145 5491.0739145 278.41264118 C5491.07435242 279.82172204 5491.07435242 279.82172204 5491.07479918 281.25926919 C5491.07632922 286.05580053 5491.07799965 290.85233181 5491.07971795 295.64886309 C5491.09196405 330.67292439 5491.08450882 365.69696035 5491.06714082 400.72101828 C5491.04960138 436.22197247 5491.04081329 471.72291302 5491.04274964 507.22387167 C5491.04280681 508.34332277 5491.04286397 509.46277387 5491.04292286 510.61614773 C5491.04344988 520.87510221 5491.04407433 531.13405668 5491.04481487 541.39301115 C5491.04666728 567.1185965 5491.04719736 592.84418179 5491.04684997 618.5697672 C5491.04683498 619.74862796 5491.04681999 620.92748871 5491.04680454 622.14207253 C5491.04594775 680.26245005 5491.03007533 738.38282244 5491.01323915 796.50319716 C5491.00732242 816.96415767 5491.00147703 837.42511819 5490.99589467 857.8860788 C5490.99537407 859.79395586 5490.99537407 859.79395586 5490.99484295 861.7403759 C5490.97885325 920.65923686 5490.97312744 979.57809745 5490.97003079 1038.49696034 C5490.96982775 1042.35030909 5490.96961988 1046.20365785 5490.96941078 1050.05700661 C5490.96815438 1073.29273927 5490.96700491 1096.52847192 5490.96597888 1119.76420459 C5490.9634235 1177.52820076 5490.95958567 1235.2921968 5490.95487809 1293.05619284 C5490.95477156 1294.37121933 5490.95466502 1295.68624583 5490.95455526 1297.04112161 C5490.94764504 1382.2117462 5490.93545518 1467.38236906 5490.91884446 1552.55299231 C5490.91857931 1553.91279598 5490.91831415 1555.27259965 5490.91804096 1556.6736095 C5490.90995822 1598.06701883 5490.90148468 1639.46042809 5490.89293469 1680.85383734 C5490.88347478 1726.66077902 5490.87408155 1772.46772071 5490.86497712 1818.27466246 C5490.86470312 1819.65209575 5490.86442912 1821.02952905 5490.86414682 1822.44870274 C5490.83814464 1953.27661179 5490.82290236 2084.10452139 5490.81044198 2214.93243235 C5490.80991341 2220.47392684 5490.80938172 2226.01542133 5490.80884991 2231.55691583 C5490.80395629 2282.55098676 5490.79918896 2333.5450577 5490.79458024 2384.53912866 C5490.79445767 2385.89510838 5490.79433511 2387.25108809 5490.79420884 2388.6481581 C5490.79383779 2392.75370002 5490.79346679 2396.85924194 5490.79309579 2400.96478387 C5490.78307242 2511.87770298 5490.77194761 2622.79062197 5490.76010924 2733.70354089 C5490.75969183 2737.61687567 5490.75927526 2741.53021045 5490.75885895 2745.44354522 C5490.74533398 2872.54487106 5490.72982536 2999.64619642 5490.65379548 3450.49115416 C5490.65359564 3451.59142741 5490.6533958 3452.69170067 5490.65318991 3453.82531554 C5490.63591378 3548.93719366 5490.61819488 3644.04907169 5490.59031892 3787.3754315 C5483.99031892 3787.3754315 5477.39031892 3787.3754315 5470.59031892 3787.3754315 C5470.5904749 3784.63955237 5470.59063088 3781.90367324 5470.59079159 3779.08488868 C5470.59575094 3692.0084973 5470.60052055 3604.93210591 5470.60618806 3497.8063397 C5470.60623797 3496.86106 5470.60628788 3495.9157803 5470.6063393 3494.94185576 C5470.61171693 3393.07782986 5470.61686676 3291.21380395 5470.63255792 2885.46202849 C5470.63266214 2882.06190581 5470.63276658 2878.66178314 5470.63287109 2875.26166046 C5470.63583473 2778.82801424 5470.63860138 2682.39436801 5470.64110585 2585.96072177 C5470.64119864 2582.38789699 5470.64129144 2578.81507222 5470.64138425 2575.24224744 C5470.6414149 2574.06220631 5470.64144555 2572.88216518 5470.64147713 2571.66636522 C5470.64262975 2527.31144644 5470.64382716 2482.95652767 5470.64505136 2438.60160889 C5470.64518429 2433.78361667 5470.64531672 2428.96562444 5470.64544867 2424.14763221 C5470.64854819 2310.99413407 5470.65242847 2197.84063604 5470.65898347 2084.68713804 C5470.6590519 2083.50481529 5470.65912034 2082.32249253 5470.65919085 2081.10434182 C5470.66146654 2041.81017439 5470.66382146 2002.51600696 5470.66618736 1963.22183954 C5470.66832529 1927.70987978 5470.67043464 1892.19792002 5470.6724503 1856.68596026 C5470.67254973 1854.9346461 5470.67254973 1854.9346461 5470.67265116 1853.14795186 C5470.67682321 1779.52567199 5470.67974651 1705.90339213 5470.68145871 1632.28111216 C5470.6814855 1631.13635294 5470.68151228 1629.99159372 5470.68153987 1628.81214483 C5470.68271775 1578.42762962 5470.68364096 1528.0431144 5470.68427682 1477.65859918 C5470.6845342 1457.35623864 5470.68482893 1437.05387809 5470.68514419 1416.75151755 C5470.68519613 1413.38653982 5470.68524686 1410.0215621 5470.68529746 1406.65658438 C5470.68627011 1342.68626933 5470.68955088 1278.71595482 5470.69495656 1214.74564 C5470.70363922 1111.98014029 5470.71069944 1009.21464027 5470.25080445 314.13946783 C5470.2203546 298.93952678 5470.19345512 283.73958309 5470.16870432 268.53963177 C5470.13581109 248.37545783 5470.09629062 228.21131658 5470.04358262 208.04718391 C5470.03853459 206.10884369 5470.03349656 204.17050344 5470.0284688 202.23216317 C5470.02601341 201.28565227 5470.02355801 200.33914137 5470.02102821 199.36394832 C5470.0046736 192.8728349 5469.9931525 186.38172475 5469.98398571 179.89059753 C5469.9731827 172.2654198 5469.95581963 164.64029533 5469.9292447 157.01515549 C5469.91620458 153.22602443 5469.90612229 149.4369549 5469.90479127 145.64780007 C5469.90328021 141.59419482 5469.88646301 137.54079545 5469.86813468 133.4872314 C5469.87013602 132.33595101 5469.87213736 131.18467062 5469.87419935 129.99850295 C5469.80114645 119.2831424 5468.52114638 108.78794758 5465.02781892 98.6254315 C5464.64255036 97.496817 5464.64255036 97.496817 5464.24949861 96.3454022 C5454.149029 68.02569371 5433.59779699 45.23963622 5406.62474275 32.07294127 C5389.89005289 24.24890424 5372.94954693 20.90314445 5354.56038536 20.99952733 C5352.99018782 20.99656041 5351.41999233 20.99227967 5349.84980147 20.98682301 C5345.54991058 20.97565439 5341.25022514 20.98301558 5336.95034003 20.99350774 C5332.24327528 21.00163678 5327.53623867 20.99221953 5322.82917675 20.98510855 C5314.5407072 20.9749936 5306.25229685 20.97603337 5297.96382613 20.98431778 C5285.51963017 20.99669282 5273.075482 20.99165244 5260.63128485 20.98328869 C5239.3262771 20.96947829 5218.02129068 20.9699575 5196.71628097 20.97806683 C5175.0027238 20.98627206 5153.28918073 20.98789105 5131.57562277 20.9815857 C5130.19979725 20.98119032 5128.82397172 20.98079495 5127.40645452 20.98038759 C5120.38187371 20.9783401 5113.35729294 20.97618877 5106.33271217 20.97400284 C5054.99313087 20.9582574 5003.65355745 20.95738469 4952.31397462 20.96398207 C4900.26368216 20.97062736 4848.21339571 20.97076898 4796.16310334 20.96293493 C4794.52268391 20.96269117 4792.88226447 20.9624474 4791.19213536 20.96219625 C4776.15914164 20.95996192 4761.12614793 20.95766243 4746.09315423 20.95528441 C4708.39305264 20.94933003 4670.69295094 20.94443891 4632.99284911 20.9402717 C4630.40124841 20.93998467 4630.40124841 20.93998467 4627.75729213 20.93969184 C4542.54481713 20.93035767 4457.33234285 20.93254028 4372.11986756 20.93598028 C4370.27243838 20.93605474 4368.42500919 20.93612919 4366.5215973 20.9362059 C4359.04230565 20.93650773 4351.56301399 20.93681043 4344.08372234 20.93711383 C4323.42415419 20.93795066 4302.76458605 20.93875658 4282.1050179 20.93952342 C4280.2398233 20.9395933 4278.37462871 20.93966318 4276.45291306 20.93973517 C4190.06856276 20.94293933 4103.68421309 20.93979887 4017.29986289 20.93533563 C4007.87968316 20.93485179 3998.45950344 20.93438178 3989.03932371 20.9339115 C3973.91973073 20.93315556 3958.80013775 20.93239732 3943.68054478 20.93163458 C3940.8682524 20.93149275 3940.8682524 20.93149275 3937.99914604 20.93134806 C3928.51834011 20.93086935 3919.03753418 20.93038791 3909.55672825 20.92990195 C3821.07340689 20.92536732 3732.59008552 20.92186904 3644.10676408 20.91939875 C3641.21477821 20.91931759 3641.21477821 20.91931759 3638.26436839 20.91923479 C3513.37664106 20.91575166 3388.48891427 20.91710924 3263.60118699 20.92178866 C3259.57199127 20.92193855 3255.54279554 20.92208835 3251.51359981 20.92223807 C3207.03090959 20.92389469 3162.54821936 20.92564634 3118.06552914 20.92743108 C3115.0536313 20.92755183 3115.0536313 20.92755183 3111.98088704 20.92767502 C3105.89370189 20.92791908 3099.80651673 20.92816327 3093.71933158 20.92840753 C3091.70976767 20.92848816 3089.70020376 20.92856879 3087.62974397 20.92865187 C3077.47585942 20.92905955 3067.32197488 20.92946865 3057.16809033 20.92988022 C2855.17012933 20.9380597 2653.17217137 20.93993033 2292.43974127 20.90943891 C2225.66490256 20.90329975 2158.89006383 20.8972174 2092.11522508 20.89146944 C2090.12178259 20.89129743 2088.1283401 20.89112541 2086.07449027 20.89094818 C1961.25667557 20.88019047 1836.43886147 20.87430256 1711.6210463 20.8739123 C1708.72997286 20.87390252 1708.72997286 20.87390252 1705.78049388 20.87389255 C1619.24147594 20.87361107 1532.70245804 20.87460205 1446.16344012 20.87678262 C1415.89674606 20.87754212 1385.63005199 20.87821609 1355.36335793 20.87886277 C1347.83343888 20.879024 1340.30351983 20.87919211 1332.77360078 20.87936578 C1246.38670723 20.88134116 1159.99981508 20.88052173 1073.61292195 20.87106105 C1071.74906312 20.87085743 1069.8852043 20.87065382 1067.9648649 20.87044403 C1037.98108526 20.86715634 1007.99730565 20.8636622 978.01352604 20.8601628 C892.92137726 20.85024665 807.82923061 20.84258482 722.73708129 20.84932932 C721.01142887 20.8494654 719.28577646 20.84960149 717.50783155 20.84974171 C679.86473989 20.85275498 642.22164845 20.85690966 604.57855705 20.86218603 C589.56675096 20.86427421 574.55494486 20.86621902 559.54313874 20.86812063 C557.08680231 20.86843786 557.08680231 20.86843786 554.58084292 20.86876149 C502.59614503 20.87540791 450.61145821 20.8697705 398.62676171 20.85706927 C347.45956529 20.84462084 296.29238521 20.84428169 245.12518971 20.86169294 C238.12337977 20.86407398 231.12156978 20.8663157 224.11975977 20.86847408 C222.06357818 20.86911607 222.06357818 20.86911607 219.96585758 20.86977103 C198.32015037 20.87616516 176.6744692 20.86919341 155.02876562 20.85655077 C133.86968827 20.84446479 112.71065215 20.84649269 91.55157798 20.86381826 C79.1987649 20.87350767 66.84607004 20.87230207 54.49326478 20.85485593 C46.31205944 20.84438823 38.13094412 20.84839191 29.94974757 20.8642102 C25.31941068 20.87275922 20.68930829 20.87519345 16.05898405 20.85971351 C-22.25075413 20.74029374 -53.42282286 27.08487824 -82.40968108 54.3754315 C-83.02456389 54.92586119 -83.63944671 55.47629088 -84.27296233 56.04340025 C-101.30932192 71.90483848 -112.57587783 97.416884 -114.40968108 120.3754315 C-114.55596494 124.58585485 -114.56394044 128.79351714 -114.56724232 133.00621333 C-114.57211144 134.26863681 -114.57698056 135.53106028 -114.58199723 136.83173902 C-114.59537539 140.34685483 -114.6026277 143.86196062 -114.60885835 147.37709538 C-114.61675343 151.23510903 -114.63027166 155.093104 -114.64297488 158.95110426 C-114.6675124 166.69727297 -114.68648505 174.44344663 -114.70364917 182.18963483 C-114.71827703 188.74398006 -114.73498704 195.2983173 -114.75295372 201.8526542 C-114.82607014 228.59471424 -114.88718386 255.33679068 -114.94362155 282.0788907 C-114.96103008 290.30461918 -114.97912673 298.53034594 -114.9975888 306.75607211 C-115.18666722 391.09995107 -115.3365066 475.44392505 -115.51431765 1214.74563571 C-115.50881635 1279.83699104 -115.50558778 1344.92834605 -115.50460905 1410.0197016 C-115.5045583 1413.3865374 -115.50450633 1416.75337321 -115.50445405 1420.12020901 C-115.50413977 1440.43303197 -115.50385242 1460.74585494 -115.50359607 1481.0586779 C-115.50295875 1531.46615599 -115.50200025 1581.87363408 -115.50082088 1632.28111216 C-115.50079424 1633.42631623 -115.50076761 1634.5715203 -115.50074017 1635.75142752 C-115.49902486 1709.39627184 -115.49599328 1783.04111604 -115.49181247 1856.68596026 C-115.49174618 1857.85383927 -115.49167989 1859.02171828 -115.49161159 1860.22498757 C-115.48959262 1895.7447742 -115.48747367 1931.26456083 -115.48533502 1966.78434745 C-115.48296916 2006.08527765 -115.48062043 2045.38620784 -115.47834563 2084.68713804 C-115.47827713 2085.86958927 -115.47820863 2087.0520405 -115.47813806 2088.27032359 C-115.47158815 2201.43418792 -115.46781125 2314.5980523 -115.46471185 2427.76191678 C-115.46457971 2432.5791746 -115.46444679 2437.39643241 -115.46431383 2442.21369023 C-115.46309003 2486.55654263 -115.46189819 2530.89939504 -115.46074641 2575.24224744 C-115.46071577 2576.42177782 -115.46068513 2577.6013082 -115.46065356 2578.81658192 C-115.4605608 2582.38788962 -115.46046805 2585.95919733 -115.4603753 2589.53050503 C-115.45787212 2685.90848485 -115.45509098 2782.28646467 -115.45212866 2878.66444448 C-115.45202431 2882.06191025 -115.45192017 2885.45937603 -115.45181609 2888.8568418 C-115.44844423 2998.89812916 -115.44457635 3108.93941648 -115.42555022 3497.8063397 C-115.42550026 3498.75286749 -115.4254503 3499.69939528 -115.42539883 3500.67460573 C-115.42082649 3587.29472384 -115.41611881 3673.91484195 -115.40968108 3787.3754315 C-122.00968108 3787.3754315 -128.60968108 3787.3754315 -135.40968108 3787.3754315 C-135.42821821 3692.72288505 -135.44617826 3598.07033849 -135.47315764 3450.49115416 C-135.47335728 3449.39232489 -135.47355691 3448.29349563 -135.47376259 3447.16136851 C-135.4952445 3328.90857674 -135.51584021 3210.65578479 -135.57863709 2741.53332037 C-135.57905399 2737.61686944 -135.57947174 2733.70041851 -135.57988976 2729.78396758 C-135.59173314 2618.80964396 -135.60280053 2507.83532028 -135.61282879 2396.86099649 C-135.61319995 2392.75370721 -135.61357116 2388.64641794 -135.6139424 2384.53912866 C-135.614065 2383.18256312 -135.61418761 2381.82599758 -135.61431392 2380.428324 C-135.61892608 2329.41944413 -135.62371555 2278.41056429 -135.62861085 2227.40168446 C-135.62914256 2221.85946714 -135.62967225 2216.31724983 -135.6302001 2210.77503252 C-135.64266258 2079.94157469 -135.65831396 1949.10811836 -135.68433928 1818.27466246 C-135.68461302 1816.89740635 -135.68488676 1815.52015025 -135.6851688 1814.10115911 C-135.69427696 1768.30077083 -135.70369457 1722.50038262 -135.71315484 1676.69999442 C-135.7217016 1635.31766042 -135.73013726 1593.9353264 -135.73820662 1552.55299231 C-135.73847175 1551.19357457 -135.73873688 1549.83415683 -135.73901004 1548.43354461 C-135.75558299 1463.30776101 -135.76734397 1378.18197777 -135.77424026 1293.05619284 C-135.77434739 1291.74160027 -135.77445453 1290.42700769 -135.77456491 1289.07257898 C-135.77926604 1231.34080217 -135.78296339 1173.60902534 -135.78551268 1115.8772484 C-135.7865429 1092.65191239 -135.78772182 1069.42657639 -135.78898218 1046.20124039 C-135.78918992 1042.35028255 -135.78939283 1038.4993247 -135.78959523 1034.64836686 C-135.79272648 975.7276026 -135.79917913 916.80684108 -135.81525683 857.8860788 C-135.81560363 856.61496328 -135.81595043 855.34384776 -135.81630774 854.03421359 C-135.82190697 833.58590096 -135.82778269 813.1375884 -135.83370612 792.68927586 C-135.85051885 734.64943961 -135.86547416 676.60960622 -135.86621213 618.5697672 C-135.86622803 617.3924548 -135.86624393 616.21514239 -135.86626031 615.00215385 C-135.86656747 589.31885281 -135.86578261 563.63555192 -135.86392866 537.95225095 C-135.86320693 527.70945786 -135.86263483 517.46666477 -135.86211181 507.22387167 C-135.86205086 506.10654385 -135.86198992 504.98921603 -135.86192713 503.83802979 C-135.86006511 468.38142228 -135.87053351 432.92483271 -135.888116 397.46822989 C-135.90537581 362.56222791 -135.91054641 327.65624817 -135.89804172 292.75024339 C-135.89633166 287.97104269 -135.89476195 283.19184195 -135.89327666 278.41264118 C-135.89298055 277.47700509 -135.89268443 276.54136901 -135.89237934 275.57738032 C-135.88807349 260.81704404 -135.89713763 246.05674801 -135.91191366 231.29641977 C-135.92609425 216.85938597 -135.92610871 202.42241057 -135.91088537 187.98537717 C-135.90242855 179.56243379 -135.90480261 171.13966568 -135.92352496 162.71673786 C-135.93617516 156.47592859 -135.92791804 150.23530977 -135.91158613 143.99451271 C-135.90825066 141.49367728 -135.9115797 138.99282152 -135.92249463 136.49200769 C-136.07825155 98.28124241 -123.54307642 65.41931824 -96.53468108 38.0004315 C-81.80932132 23.51330678 -64.40009406 13.13498149 -44.84718108 6.4379315 C-44.07044036 6.16763121 -43.29369964 5.89733091 -42.49342132 5.6188397 C-28.67260357 1.18060131 -14.4239426 -0.07647364 0 0 Z " fill="#3F3F3F" transform="translate(1322.4096810817719,1992.6245684996247)"/>
<path d="M0 0 C10.14975386 -0.43330126 19.52864562 1.85182816 27.45703125 8.42578125 C36.48313407 16.88775264 41.5806401 24.6988202 42.5703125 37.19140625 C42.84517099 48.73546298 40.31257561 58.61256069 32.33203125 67.18359375 C31.37683594 68.21806641 31.37683594 68.21806641 30.40234375 69.2734375 C22.55175876 76.99461724 13.33544846 80.62044492 2.33203125 80.80859375 C-9.22129351 80.59742917 -18.29600966 76.62988155 -26.51171875 68.57421875 C-35.30412813 58.82611269 -38.26323617 49.93308071 -37.94921875 36.8359375 C-37.08391483 25.59900459 -31.8986424 16.5551693 -23.78515625 8.8203125 C-16.51178189 3.19753786 -9.0357219 0.62178467 0 0 Z " fill="#222222" transform="translate(3997.66796875,2099.81640625)"/>
<path d="M0 0 C5.28 0 10.56 0 16 0 C16 43.89 16 87.78 16 133 C8.125 134.125 8.125 134.125 4.67160892 134.12304783 C3.88435777 134.12503888 3.09710661 134.12702993 2.28599936 134.12908131 C1.02089841 134.12471205 1.02089841 134.12471205 -0.26976013 134.12025452 C-1.63855453 134.12153615 -1.63855453 134.12153615 -3.03500134 134.12284368 C-6.08121576 134.12448586 -9.12737466 134.11899781 -12.17358398 134.11352539 C-14.36178079 134.11324322 -16.54997769 134.11340184 -18.73817444 134.1139679 C-24.6714633 134.11425471 -30.60473192 134.10837672 -36.53801608 134.10139394 C-42.74133117 134.09514109 -48.94464672 134.09455507 -55.14796448 134.09336853 C-66.22417425 134.09043755 -77.30037566 134.08321674 -88.37658162 134.07372581 C-98.42968351 134.0651573 -108.48278391 134.05891459 -118.53588867 134.05493164 C-119.19716263 134.05466892 -119.85843658 134.05440619 -120.53974914 134.05413551 C-123.8573185 134.05283043 -127.17488788 134.05156899 -130.49245727 134.05032361 C-157.99497668 134.03987212 -185.49748782 134.02228369 -213 134 C-213 133.67 -213 133.34 -213 133 C-142.71 133 -72.42 133 0 133 C0 89.11 0 45.22 0 0 Z " fill="#AFAFB4" transform="translate(7427,5780)"/>
<path d="M0 0 C4.29 0 8.58 0 13 0 C13 43.89 13 87.78 13 133 C9.04 133.33 5.08 133.66 1 134 C0 133 0 133 -0.12304783 130.79984188 C-0.12166514 129.33004297 -0.12166514 129.33004297 -0.12025452 127.83055115 C-0.12162918 126.71009399 -0.12300385 125.58963684 -0.12442017 124.43522644 C-0.12082489 123.19517349 -0.11722961 121.95512054 -0.11352539 120.67749023 C-0.11367142 119.38011932 -0.11381744 118.08274841 -0.1139679 116.74606323 C-0.11425586 113.17804071 -0.10835932 109.61005152 -0.10139394 106.04203677 C-0.09516021 102.3170938 -0.09455659 98.59215014 -0.09336853 94.86720276 C-0.09025527 87.80882637 -0.08204195 80.7504654 -0.07201904 73.69209582 C-0.06085774 65.65837029 -0.05534741 57.62464404 -0.05032361 49.5909127 C-0.03985933 33.06059918 -0.02205954 16.53030216 0 0 Z " fill="#636267" transform="translate(7453,5780)"/>
<path d="M0 0 C1.65 0 3.3 0 5 0 C5 43.89 5 87.78 5 133 C3.35 133 1.7 133 0 133 C-0.15386897 116.10196734 -0.30190314 99.20389505 -0.4429636 82.30575085 C-0.50859475 74.4599103 -0.57614562 66.61409501 -0.64819336 58.76831055 C-0.71097465 51.93108629 -0.77017694 45.09384208 -0.82505554 38.25654966 C-0.85424731 34.63522333 -0.88524879 31.01393264 -0.92053413 27.39266014 C-0.95982731 23.35319633 -0.99113093 19.31370896 -1.02172852 15.27416992 C-1.03467453 14.06935974 -1.04762054 12.86454956 -1.06095886 11.62322998 C-1.06799835 10.52526596 -1.07503784 9.42730194 -1.08229065 8.29606628 C-1.09058679 7.34016696 -1.09888292 6.38426764 -1.10743046 5.39940166 C-1 3 -1 3 0 0 Z " fill="#515056" transform="translate(7461,5780)"/>
<path d="M0 0 C1.98 0 3.96 0 6 0 C5.67 43.89 5.34 87.78 5 133 C3.35 133 1.7 133 0 133 C0 89.11 0 45.22 0 0 Z " fill="#C4C5CA" transform="translate(7427,5780)"/>
<path d="M0 0 C1.65 0 3.3 0 5 0 C5 43.89 5 87.78 5 133 C3.35 133 1.7 133 0 133 C0 89.11 0 45.22 0 0 Z " fill="#A0A0A5" transform="translate(7438,5780)"/>
<path d="M0 0 C0.99 0 1.98 0 3 0 C3 44.22 3 88.44 3 134 C2.01 133.67 1.02 133.34 0 133 C0 89.11 0 45.22 0 0 Z " fill="#6F6E74" transform="translate(7453,5780)"/>
<path d="M0 0 C0.99 0 1.98 0 3 0 C3 43.89 3 87.78 3 133 C2.01 133 1.02 133 0 133 C0 89.11 0 45.22 0 0 Z " fill="#919196" transform="translate(7443,5780)"/>
</svg>
